<?xml version="1.0" encoding="UTF-8" standalone="no"?>
<svg
   class="logo-jenkins"
   version="1.1"
   viewBox="682 209 100 100"
   id="svg1"
   sodipodi:docname="jenkins.svg"
   width="100"
   height="100"
   inkscape:version="1.3 (0e150ed6c4, 2023-07-21)"
   xmlns:inkscape="http://www.inkscape.org/namespaces/inkscape"
   xmlns:sodipodi="http://sodipodi.sourceforge.net/DTD/sodipodi-0.dtd"
   xmlns="http://www.w3.org/2000/svg"
   xmlns:svg="http://www.w3.org/2000/svg">
  <defs
     id="defs1" />
  <sodipodi:namedview
     id="namedview1"
     pagecolor="#ffffff"
     bordercolor="#000000"
     borderopacity="0.25"
     inkscape:showpageshadow="2"
     inkscape:pageopacity="0.0"
     inkscape:pagecheckerboard="0"
     inkscape:deskcolor="#d1d1d1"
     inkscape:zoom="11.73"
     inkscape:cx="50"
     inkscape:cy="50"
     inkscape:window-width="2560"
     inkscape:window-height="1369"
     inkscape:window-x="-8"
     inkscape:window-y="-8"
     inkscape:window-maximized="1"
     inkscape:current-layer="svg1" />
  <g
     fill-rule="evenodd"
     fill="none"
     id="jenkins-logo"
     stroke-width="1"
     stroke="none"
     transform="matrix(1,0,0,-1,696.08551,308.65844)">
    <g
       id="g3393">
      <path
         d="m 70.747612,51.458599 c 0,-19.67707 -15.595144,-35.628663 -34.832803,-35.628663 -19.237341,0 -34.8325041,15.951593 -34.8325041,35.628663 0,19.677547 15.5951631,35.629379 34.8325041,35.629379 19.237659,0 34.832803,-15.951832 34.832803,-35.629379"
         fill="#d33833"
         id="path22" />
      <path
         d="m 2.5017436,42.634554 c 0,0 -2.52164806,37.154857 31.7141804,38.216561 L 31.827548,84.832006 13.250159,78.595143 7.9421974,72.491242 3.297922,63.600318 0.64378583,53.25 1.4399642,46.34992"
         fill-rule="nonzero"
         fill="#ef3d3a"
         id="path24" />
      <path
         d="M 12.057444,75.763933 C 5.9459793,69.510748 2.1641441,60.87699 2.1641441,51.325637 v 0 c 0,-9.549363 3.7818352,-18.184236 9.8932999,-24.436266 v 0 c 6.114411,-6.25203 14.540964,-10.109912 23.856887,-10.109912 v 0 c 9.316163,0 17.743312,3.857882 23.857166,10.109912 v 0 c 6.111067,6.25203 9.89371,14.886903 9.89371,24.436266 v 0 c 0,9.551353 -3.782643,18.185111 -9.89371,24.438296 v 0 C 53.657643,82.014729 45.230494,85.872612 35.914331,85.873408 v 0 C 26.598408,85.872612 18.171855,82.014729 12.057444,75.763933 Z M 10.51047,25.376951 C 4.015406,32.019427 0,41.199443 0,51.325637 v 0 c 0,10.127787 4.015406,19.306927 10.51047,25.949841 v 0 c 6.493551,6.644108 15.482285,10.76234 25.403861,10.761146 v 0 c 9.921656,0.0012 18.911306,-4.117038 25.403742,-10.761146 v 0 C 67.813694,70.632564 71.829618,61.452627 71.828822,51.325637 v 0 C 71.829618,41.199443 67.813694,32.019427 61.318073,25.376951 v 0 C 54.825637,18.733201 45.835987,14.615486 35.914331,14.615486 v 0 c -9.921576,0 -18.91031,4.117715 -25.403861,10.761465 z"
         fill-rule="nonzero"
         fill="#231f20"
         id="path26" />
      <polyline
         fill="#f0d6b7"
         id="path28"
         points="50.5776274 51.2611465 45.2695064 50.4649682 38.1038217 49.6687898 33.4592357 49.5362261 28.9477707 49.6687898 25.4974522 50.7304936 22.4453822 54.0477707 20.0568471 60.8152866 19.5261146 62.2750796 16.3414013 63.3363854 14.4835987 66.388535 13.1566879 70.7675159 14.6165605 74.6158439 18.0664013 75.8101115 20.8530255 74.4828822 22.1802548 71.5636943 23.7726115 71.8292197 24.3031847 72.4924363 23.7726115 75.544586 23.6396497 79.392914 24.435828 84.7006369 24.4047373 87.7324841 26.8243631 91.6007166 31.0707006 94.6528662 38.5019108 97.8375796 46.7289013 96.6433121 53.8945064 91.4681529 57.2121815 86.1604299 59.3351911 82.3121019 59.8658439 72.7579618 58.2734873 64.5306529 55.3542994 57.2324841 52.5676752 53.3841561" />
      <polyline
         fill="#335061"
         id="path30"
         points="46.0656847 28.3049363 27.0898089 27.508758 27.0898089 24.3240446 28.6821656 13.1775478 27.8859873 12.2484076 14.6165605 16.7603503 13.6874204 18.352707 12.3605096 33.3471338 9.3089172 42.370621 8.64522293 44.4936306 19.2606688 51.7917994 22.5783439 53.1190287 25.4974522 49.5362261 28.0186306 47.2802548 30.9382166 46.3515127 32.2649682 45.9534236 33.8573248 39.0533439 35.0515924 37.5936306 38.1038217 38.6552548 35.980414 34.5414013 47.5250796 29.1011146 46.0656847 28.3049363" />
      <polyline
         fill="#6d6b6d"
         id="path32"
         points="14.6165605 74.6158439 18.0664013 75.8101115 20.8530255 74.4828822 22.1802548 71.5636943 23.7726115 71.8292197 24.1707006 73.4215764 23.3745223 76.473328 24.1707006 83.7718949 23.5070064 87.7527866 25.8955414 90.5394108 31.0707006 94.6528662 29.6109873 96.6433121 22.3127389 93.0605096 19.2606688 90.6719745 17.5356688 86.9566083 14.8816879 83.3738057 14.0855096 79.1273885 14.6165605 74.6158439" />
      <path
         d="m 20.056847,87.089172 c 0,0 1.990446,4.909634 9.952229,7.298169 7.961784,2.388535 0.39809,1.725318 0.39809,1.725318 l -8.625,-3.317675 -3.317676,-3.317277 -1.459395,-2.654061 3.051752,0.265526"
         fill="#dcd9d8"
         id="path34" />
      <path
         d="m 16.075955,75.544586 c 0,0 -2.786624,9.289013 7.829141,10.615844 l -0.39809,1.592357 -7.298089,-1.725319 -2.123407,-6.90008 0.531051,-4.511544 1.459394,0.928742"
         fill="#dcd9d8"
         id="path36" />
      <path
         d="m 20.322293,63.203822 1.73746,1.683519 c 0,0 0.784196,-0.09116 0.91668,-1.019905 0.132484,-0.92914 0.530573,-9.289012 6.236465,-13.800955 0.520462,-0.411624 -4.246019,0.664013 -4.246019,0.664013 l -4.246497,6.634554"
         fill="#f7e4cd"
         id="path38" />
      <path
         d="m 44.739252,65.72492 c 0,0 0.309315,4.022293 1.392516,3.712978 1.0832,-0.309315 1.0832,-1.392516 1.0832,-1.392516 0,0 -2.630573,-1.701831 -2.475716,-2.320462"
         fill="#f7e4cd"
         id="path40" />
      <path
         d="m 55.752389,80.45422 c 0,0 -2.187102,-0.461784 -2.388536,-2.388535 -0.201433,-1.92715 2.388536,-0.398089 2.786625,-0.265526"
         fill-rule="nonzero"
         fill="#f7e4cd"
         id="path42" />
      <path
         d="m 39.696178,80.321258 c 0,0 -2.919586,-0.398089 -2.919586,-2.255573 0,-1.857883 3.317755,-1.725319 4.246497,-0.92914"
         fill-rule="nonzero"
         fill="#f7e4cd"
         id="path44" />
      <path
         d="m 21.649204,71.696258 c 0,0 -5.042675,3.05215 -5.573249,0.132564 -0.530732,-2.919188 -1.725318,-5.042596 0.796179,-8.094348 l -1.725,0.530653 -1.592357,4.113456 -0.530573,3.980892 3.051751,3.185111 3.45016,-0.265526 1.990445,-1.592356 0.132644,-1.990446"
         fill="#f7e4cd"
         id="path46" />
      <path
         d="m 24.037739,80.056131 c 0,0 2.255892,11.677149 13.667994,13.933121 9.395382,1.857086 14.330891,-0.39809 16.188773,-2.521099 0,0 -8.359872,9.951827 -16.321735,6.90008 -7.961784,-3.05215 -13.80016,-8.625399 -13.667675,-12.207803 0.225955,-6.101911 0.132643,-6.104299 0.132643,-6.104299"
         fill="#f7e4cd"
         id="path48" />
      <path
         d="m 54.823647,90.141322 c 0,0 -3.84793,0.132563 -3.980892,-3.317676 0,0 -3.98e-4,-0.530652 0.265127,-1.061305 0,0 3.052548,3.450239 4.910032,1.592356"
         fill="#f7e4cd"
         id="path50" />
      <path
         d="m 37.973209,85.402866 c 0,0 -0.662461,5.29578 -5.177508,2.216959 -2.919268,-1.990446 -2.653663,-4.77707 -2.12309,-5.307723 0.530733,-0.531051 0.386426,-1.599921 0.790446,-0.866242 0.403822,0.733678 0.27086,3.122213 1.730733,3.78543 1.459713,0.663614 3.852587,1.404856 4.779419,0.171576"
         fill="#f7e4cd"
         id="path52" />
      <path
         d="M 25.497452,49.536226 13.024204,43.962978 c 0,0 5.175159,-20.568074 2.521019,-26.9375 l -1.857803,0.663216 -0.132643,7.8293 -3.449682,14.861783 -1.4598721,4.113854 13.0039811,8.757563 3.848248,-3.714968"
         fill="#49728b"
         id="path54" />
      <path
         d="m 26.780056,38.159952 1.769625,-2.159156 v -7.961783 h -2.123407 c 0,0 -0.265128,5.573248 -0.265128,6.236942 0,0.663535 0.265128,3.052071 0.265128,3.052071"
         fill="#49728b"
         id="path56" />
      <polyline
         fill="#49728b"
         id="path58"
         points="26.8243631 26.8447452 20.8530255 26.5796178 22.5783439 25.3853503 26.8243631 24.7218153" />
      <polyline
         fill="#335061"
         id="path60"
         points="47.2599522 28.1719745 52.169586 28.3046178 53.3638535 16.0963376 48.321258 15.433121 47.2599522 28.1719745" />
      <path
         d="m 48.586783,28.171974 7.431131,0.39809 c 0,0 3.051752,7.696337 3.051752,8.094426 0,0.39809 2.65406,11.146418 2.65406,11.146418 l -5.971337,6.236465 -1.194268,1.061703 -3.184713,-3.184713 V 39.583599 L 48.586783,28.171974"
         fill="#335061"
         id="path62" />
      <path
         d="m 51.90406,29.100796 -4.644108,-0.928822 0.663217,-3.715764 c 1.72492,-0.796178 4.644506,1.327229 4.644506,1.327229"
         fill="#49728b"
         id="path64" />
      <polyline
         fill="#49728b"
         id="path66"
         points="52.0370223 52.3224522 61.3256369 45.4223726 61.5911624 48.607086 54.558121 55.1090764 52.0370223 52.3224522" />
      <polyline
         fill="#ffffff"
         id="path68"
         points="31.4294586 2.0294785 28.6821656 13.1775478 27.3157643 21.4031847 27.0898089 27.508758 39.5240446 28.1707006 47.2599522 28.1719745 46.5565287 14.2375796 47.7507962 3.4891879 47.6182325 1.49874204 37.5335987 0.702563694 31.4294586 2.0294785" />
      <path
         d="m 45.534634,28.304618 c 0,0 -0.663217,-13.800637 1.327229,-23.6199046 0,0 -3.980892,-2.5215048 -9.819825,-3.1847253 L 48.188694,1.8980772 49.515526,2.6942556 47.923169,24.45621 47.52508,29.101115"
         fill="#dcd9d8"
         id="path70" />
      <polyline
         fill="#ffffff"
         id="path72"
         points="53.5899682 17.1568471 58.7651274 18.6165605 68.5843949 19.147293 70.0441879 23.6587978 67.3901274 31.4880573 64.3383758 31.8861465 60.0919586 30.5592357 56.017914 28.5700637 53.8550955 28.966879 52.169586 28.3046178" />
      <path
         d="m 53.496417,19.812102 c 0,0 3.449841,1.592038 3.980892,1.459395 l -1.459395,7.298567 1.72492,0.663216 c 0,0 1.194268,-6.9 1.194268,-7.696178 0,0 7.430732,-0.398089 8.094347,-0.398089 0,0 1.592357,3.05207 1.194268,6.236783 l 1.459793,-4.246337 0.132563,-2.388535 -2.123009,-3.184714 -2.388535,-0.530732 -3.980892,0.132643 -1.326831,1.724841 -4.644507,-0.663217 -1.459793,-0.531051"
         fill="#dcd9d8"
         id="path74" />
      <path
         d="m 48.281847,29.232046 -2.919188,7.431171 -3.052149,4.37898 c 0,0 0.663216,1.857883 1.592356,1.857883 h 3.05215 l 2.919188,-1.061704 -0.265128,-4.909714 -1.327229,-7.696616"
         fill-rule="nonzero"
         fill="#ffffff"
         id="path76" />
      <path
         d="m 48.852309,31.754777 c 0,0 -3.715764,7.165287 -3.715764,8.226911 0,0 0.663216,1.592357 1.592356,1.194267 0.92914,-0.398089 2.919586,-1.459395 2.919586,-1.459395 v 2.521099 l -4.511942,0.92914 -3.051752,-0.398089 5.175159,-12.2082 1.061306,-0.132962"
         fill="#dcd9d8"
         id="path78" />
      <polyline
         fill-rule="nonzero"
         fill="#ffffff"
         id="path80"
         points="32.6238854 49.2691083 28.9477707 49.6687898 25.4974522 50.7304936 25.4974522 49.5362261 27.1832803 47.6771497 32.4910828 45.2886146" />
      <path
         d="m 26.692197,48.871417 c 0,0 4.113854,-1.725318 5.440765,-1.327229 l 0.132006,-1.590764 -3.714809,0.794586 -2.256051,1.592356 0.398089,0.531051"
         fill="#dcd9d8"
         id="path82" />
      <path
         d="m 53.575637,42.448248 c -2.251592,0.06608 -4.285828,0.333599 -6.066879,0.835988 0.121019,0.730095 -0.105494,1.446656 0.07643,1.972532 0.496417,0.357484 1.328424,0.35191 2.078822,0.435907 -0.648886,0.31887 -1.56051,0.445064 -2.309316,0.260749 -0.01752,0.506767 -0.244824,0.820859 -0.382563,1.217356 1.265923,0.451831 4.254379,3.414013 5.935509,2.433121 0.800956,-0.46656 1.141322,-3.131369 1.203424,-4.427149 0.05175,-1.074841 -0.09753,-2.159236 -0.53543,-2.728504"
         fill="#d33833"
         id="path84" />
      <path
         d="m 53.575637,42.448248 c -2.251592,0.06608 -4.285828,0.333599 -6.066879,0.835988 0.121019,0.730095 -0.105494,1.446656 0.07643,1.972532 0.496417,0.357484 1.328424,0.35191 2.078822,0.435907 -0.648886,0.31887 -1.56051,0.445064 -2.309316,0.260749 -0.01752,0.506767 -0.244824,0.820859 -0.382563,1.217356 1.265923,0.451831 4.254379,3.414013 5.935509,2.433121 0.800956,-0.46656 1.141322,-3.131369 1.203424,-4.427149 0.05175,-1.074841 -0.09753,-2.159236 -0.53543,-2.728504 z"
         id="path86"
         stroke-width="2.5"
         stroke="#d33833" />
      <path
         d="m 42.808519,46.128981 c -0.006,-0.170382 -0.01314,-0.341959 -0.0199,-0.513933 -0.703026,-0.461784 -1.837978,-0.45621 -2.609475,-0.844347 1.137341,-0.04976 2.032643,-0.323647 2.807325,-0.709793 -0.01712,-0.42914 -0.03344,-0.857882 -0.05016,-1.287023 -1.288615,-0.882165 -2.465765,-2.195859 -3.982962,-3.023129 -0.717357,-0.391242 -3.234952,-1.397969 -3.998169,-1.220063 -0.431807,0.100278 -0.470701,0.636146 -0.643312,1.141242 -0.367755,1.081648 -1.21449,2.803383 -1.288336,4.431568 -0.09407,2.056529 -0.301672,5.503185 1.91457,5.079618 1.787978,-0.341162 3.867516,-1.164809 5.251792,-1.921178 0.845939,-0.46258 1.335191,-1.034236 2.61863,-1.132962"
         fill="#d33833"
         id="path88" />
      <path
         d="m 42.808519,46.128981 c -0.006,-0.170382 -0.01314,-0.341959 -0.0199,-0.513933 -0.703026,-0.461784 -1.837978,-0.45621 -2.609475,-0.844347 1.137341,-0.04976 2.032643,-0.323647 2.807325,-0.709793 -0.01712,-0.42914 -0.03344,-0.857882 -0.05016,-1.287023 -1.288615,-0.882165 -2.465765,-2.195859 -3.982962,-3.023129 -0.717357,-0.391242 -3.234952,-1.397969 -3.998169,-1.220063 -0.431807,0.100278 -0.470701,0.636146 -0.643312,1.141242 -0.367755,1.081648 -1.21449,2.803383 -1.288336,4.431568 -0.09407,2.056529 -0.301672,5.503185 1.91457,5.079618 1.787978,-0.341162 3.867516,-1.164809 5.251792,-1.921178 0.845939,-0.46258 1.335191,-1.034236 2.61863,-1.132962 z"
         id="path90"
         stroke-width="2.5"
         stroke="#d33833" />
      <path
         d="m 44.088376,43.675159 c -0.196656,1.120223 -0.423965,1.439889 -0.335987,2.417198 2.987659,1.992038 3.548566,-3.421577 0.335987,-2.417198"
         fill="#d33833"
         id="path92" />
      <path
         d="m 44.088376,43.675159 c -0.196656,1.120223 -0.423965,1.439889 -0.335987,2.417198 2.987659,1.992038 3.548566,-3.421577 0.335987,-2.417198 z"
         id="path94"
         stroke-width="2.5"
         stroke="#d33833" />
      <path
         d="m 48.414411,42.767118 c 0,0 -0.92914,1.327229 -0.265526,1.725318 0.663615,0.39809 1.32723,-3.98e-4 1.725319,0.663217 0.398089,0.663615 0,1.061704 0.132564,1.857882 0.132563,0.796178 0.796576,0.92914 1.459792,1.061704 0.663217,0.132563 2.521497,0.398089 2.786625,-0.265526 l -0.796179,2.388535 -1.592356,0.530653 -5.042596,-2.919188 -0.265525,-1.459793 v -2.919188"
         fill="#ef3d3a"
         id="path96" />
      <path
         d="m 34.481369,38.388097 c -0.159394,2.0709 -0.328105,4.138973 -0.515804,6.207842 -0.280852,3.089172 0.742038,2.55016 3.419825,2.55016 0.408997,0 2.518272,-0.48766 2.669148,-0.796179 0.723726,-1.478105 -1.210191,-1.149681 0.833599,-2.264331 1.725318,-0.940684 4.773089,0.571258 4.076035,2.662421 -0.390127,0.464968 -2.032643,0.144904 -2.621417,0.450238 -1.036624,0.537421 -2.073249,1.074841 -3.109992,1.612262 -1.318949,0.684315 -4.367317,1.681926 -5.773527,0.725716 -3.563058,-2.423169 0.22488,-8.477707 1.495939,-11.005533"
         fill="#ef3d3a"
         id="path98" />
      <path
         d="m 37.973209,85.402866 c -3.61672,0.842357 -5.413854,-1.513535 -6.510152,-3.957006 -0.978901,0.237261 -0.589371,1.568471 -0.342118,2.246815 0.647373,1.780255 3.25625,4.15008 5.387899,3.828822 0.917317,-0.138137 2.158678,-0.976911 1.464371,-2.118631"
         fill="#231f20"
         id="path100" />
      <path
         d="m 55.595143,81.284236 c 0.05693,-0.0024 0.11465,-0.0044 0.171577,-0.0068 0.817277,-1.69785 1.524681,-3.496417 2.555732,-4.995223 -0.690684,-1.608678 -5.230095,-3.032245 -5.160032,-0.14371 0.981688,0.42914 2.676354,0.08758 3.546577,0.635748 -0.503185,1.380972 -1.2293,2.556529 -1.113854,4.509953"
         fill="#231f20"
         id="path102" />
      <path
         d="m 39.824841,81.240048 c 0.775477,-1.421577 1.027866,-2.915207 2.130175,-3.98965 0.496417,-0.483678 1.461783,-1.073248 0.98328,-2.418392 -0.111863,-0.317277 -0.92914,-1.024681 -1.400876,-1.163614 -1.723328,-0.508758 -5.738933,-0.105096 -4.37906,2.043391 1.425199,-0.06648 3.340844,-0.925557 4.40613,0.109077 -0.818073,1.307723 -2.276512,3.894904 -1.739649,5.419188"
         fill="#231f20"
         id="path104" />
      <path
         d="M 54.948248,66.791799 C 52.353503,65.125 49.460191,63.3125 45.208599,63.732882 c -0.90844,0.789809 -1.254777,2.547373 -0.372214,3.708201 0.459395,-0.789809 0.170781,-2.242437 1.451035,-2.460987 2.412421,-0.412819 5.220144,1.475716 6.955414,2.135748 1.076035,1.814092 -0.09275,2.48129 -1.062102,3.648885 -1.984474,2.392118 -4.646496,5.357086 -4.549761,8.938296 0.80215,0.581609 0.871418,-0.887738 0.986465,-1.155254 1.036226,-2.425159 3.644109,-5.526672 5.547373,-7.602309 0.467357,-0.511147 1.236863,-1.001593 1.322452,-1.33957 0.246815,-0.982882 -0.642118,-2.16043 -0.539013,-2.814093"
         fill="#231f20"
         id="path106" />
      <path
         d="m 20.741083,68.546576 c -0.813296,0.464172 -1.006887,2.508758 -1.961704,2.566879 -1.36453,0.0828 -1.115725,-2.652468 -1.110271,-4.25199 -0.939251,0.852707 -1.104419,3.478105 -0.414411,4.826433 -0.786385,0.386147 -1.137539,-0.425955 -1.573726,-0.712181 0.560589,4.072452 5.957365,1.888933 5.060112,-2.429141"
         fill="#231f20"
         id="path108" />
      <path
         d="m 56.600318,65.095939 c -1.207802,-2.298965 -2.916401,-4.830812 -6.460589,-4.904458 -0.07205,0.742436 -0.127388,1.872213 0.004,2.319267 2.709395,0.260351 4.382166,1.639332 6.456608,2.585191"
         fill="#231f20"
         id="path110" />
      <path
         d="m 39.620462,63.605494 c 2.260509,-1.188695 6.414968,-1.316481 9.48742,-1.226513 0.164809,-0.673169 0.160828,-1.504777 0.167198,-2.325637 -3.949443,-0.197054 -8.619029,0.780255 -9.654618,3.55215"
         fill="#231f20"
         id="path112" />
      <path
         d="m 39.190804,61.388933 c 1.563177,-3.924761 6.935788,-3.47293 11.466441,-3.36465 -0.199443,-0.509554 -0.631767,-1.111465 -1.169188,-1.329219 -1.451831,-0.590765 -5.45621,-1.039013 -7.471735,0.03145 -1.278265,0.679538 -2.099523,2.214968 -2.799881,3.115047 -0.338216,0.434714 -2.022333,1.544985 -0.02564,1.547373"
         fill="#231f20"
         id="path114" />
      <path
         d="m 54.759554,39.739729 c -1.834395,-3.141799 -3.58957,-6.36867 -5.765923,-9.139888 0.91242,2.682762 1.302945,7.17293 1.440684,10.596019 1.908838,0.893312 3.543392,-0.201035 4.325239,-1.456131"
         fill="#81b0c4"
         id="path116" />
      <path
         d="m 64.630573,28.44781 c -2.053742,-0.411146 -3.496815,-2.407165 -5.500398,-2.27906 1.101115,1.552269 3.030653,2.206608 5.500398,2.27906"
         fill="#231f20"
         id="path118" />
      <path
         d="m 65.536624,25.233718 c -1.673965,-0.176791 -3.640127,-0.44785 -5.337977,-0.3082 0.803742,1.227706 3.900477,0.8041 5.337977,0.3082"
         fill="#231f20"
         id="path120" />
      <path
         d="m 66.11664,22.462659 c -1.881369,-0.04076 -4.219745,-0.0033 -6.007962,0.146776 1.057723,1.136106 4.787819,0.421576 6.007962,-0.146776"
         fill="#231f20"
         id="path122" />
      <path
         d="M 51.219745,14.879379 C 51.48965,12.51664 52.426353,10.122651 52.308917,7.5350717 51.26871,7.1842755 50.671178,6.8774682 49.277468,6.8793392 49.17914,9.0784634 48.884952,12.440287 48.97293,14.536624 c 0.685509,-0.04538 1.696258,0.48969 2.246815,0.342755"
         fill="#dcd9d8"
         id="path124" />
      <path
         d="m 48.186704,49.701035 c -0.944666,-0.61664 -1.749204,-1.386545 -2.656449,-2.044984 -2.011943,-0.09952 -3.109873,0.139331 -4.587978,1.294586 0.02428,0.09275 0.172771,0.05135 0.178344,0.165207 2.153662,-0.959793 4.891322,0.390924 7.066083,0.585191"
         fill="#f0d6b7"
         id="path126" />
      <path
         d="m 36.880772,35.020342 c 0.59172,2.564093 2.910271,3.892078 5.015725,5.304101 2.173169,-2.758042 3.494825,-6.304937 4.950239,-9.727707 -3.438695,1.036584 -6.95223,2.718511 -9.965964,4.423606"
         fill="#81b0c4"
         id="path128" />
      <path
         d="m 48.97293,14.536624 c -0.08798,-2.096337 0.20621,-5.4581606 0.304538,-7.6572848 1.39371,-0.00187 1.991242,0.3049363 3.031449,0.6557325 0.117436,2.5875793 -0.819267,4.9815683 -1.089172,7.3443073 -0.550557,0.146935 -1.561306,-0.388137 -2.246815,-0.342755 z M 27.271457,26.458917 C 28.190486,18.010271 29.521576,10.908121 31.962978,3.426676 37.381489,1.781449 43.913615,1.6380732 48.703026,3.1226672 47.823647,7.3452229 48.207802,12.485987 47.693869,16.992038 c -0.38734,3.386863 -0.189888,6.794586 -0.720939,10.25 -5.803344,1.207325 -14.00617,0.282245 -19.701473,-0.783121 z m 21.073686,0.730096 c -0.04897,-3.628503 0.162421,-7.207723 0.439491,-10.840765 1.393312,0.209156 2.338774,0.348806 3.63336,0.632604 -0.420383,3.497572 -0.368631,7.4332 -1.224921,10.52711 -0.989649,-0.0095 -1.861067,0.0115 -2.84793,-0.318949 z m 7.068074,0.584872 c -0.661227,0.151593 -1.431131,0.0059 -2.062899,-0.0064 0.296975,-2.957842 1.017516,-6.221736 1.271099,-9.326513 0.994029,-0.03093 1.52508,0.437898 2.342755,0.595581 0.04379,2.725359 -0.238057,6.480136 -1.550955,8.737301 z m 10.702229,-9.778224 c 2.072054,0.503185 3.375,3.041003 2.795382,5.647253 -0.388933,1.751592 -1.081608,5.049841 -1.82285,6.170382 -0.547771,0.828822 -2.033042,1.913933 -3.218949,1.154459 -1.92914,-1.235311 -5.327628,-1.593909 -6.734475,-3.089212 0.705414,-2.348726 0.924363,-5.574801 1.215366,-8.550836 2.410032,-0.150239 5.375398,0.663217 7.379777,-0.2 -1.399283,-0.453264 -3.214968,-0.456847 -4.423965,-1.117436 0.988058,-0.47723 3.301354,-0.380812 4.809714,-0.01461 z m -19.26871,12.601075 c -1.455414,3.42277 -2.77707,6.969665 -4.950239,9.727707 -2.105454,-1.412023 -4.424005,-2.740008 -5.015725,-5.304101 3.013734,-1.705095 6.527269,-3.387022 9.965964,-4.423606 z m 3.587579,10.599124 c -0.137739,-3.423089 -0.528264,-7.913257 -1.440684,-10.596019 2.176353,2.771218 3.931528,5.998089 5.765923,9.139888 -0.781847,1.255096 -2.416401,2.349443 -4.325239,1.456131 z m -4.066879,1.445064 c -0.824442,0.08877 -1.524283,-0.947851 -2.596337,-0.499602 -0.245621,-0.271497 -0.468949,-0.565685 -0.719347,-0.830812 2.367834,-2.853543 3.443869,-6.902071 5.272691,-10.255494 0.981289,3.221258 0.868232,6.750398 1.084395,10.266242 -1.348328,-0.08559 -2.096338,1.219347 -3.041402,1.319666 z m -2.615047,3.451433 c -0.08798,-0.977309 0.139331,-1.296975 0.335987,-2.417198 3.212579,-1.004379 2.651672,4.409236 -0.335987,2.417198 z m -3.5625,1.169586 c -1.384276,0.756369 -3.463814,1.580016 -5.251792,1.921178 -2.216242,0.423965 -2.008638,-3.023089 -1.91457,-5.079618 0.07385,-1.628185 0.920581,-3.34992 1.288336,-4.431568 0.172611,-0.505096 0.211505,-1.040964 0.643312,-1.141242 0.763217,-0.177906 3.280812,0.828821 3.998169,1.220063 1.517197,0.82727 2.694347,2.140964 3.982962,3.023129 0.01672,0.429141 0.03304,0.857883 0.05016,1.287023 -0.774682,0.386146 -1.669984,0.660031 -2.807325,0.709793 0.771497,0.388137 1.906449,0.382563 2.609475,0.844347 0.0068,0.171974 0.01393,0.343551 0.0199,0.513933 -1.283439,0.09873 -1.772691,0.670382 -2.61863,1.132962 z m -13.221975,2.401672 c -1.148885,-1.166402 3.222333,-2.75637 4.614092,-2.841959 -0.0078,0.738057 0.420621,1.433917 0.334316,1.963376 -1.652986,0.290207 -3.825359,0.09873 -4.948408,0.878583 z m 14.152707,-0.547771 c -0.0056,-0.113854 -0.154061,-0.07245 -0.178344,-0.165207 1.478105,-1.155255 2.576035,-1.394108 4.587978,-1.294586 0.907245,0.658439 1.711783,1.428344 2.656449,2.044984 -2.174761,-0.194267 -4.912421,-1.544984 -7.066083,-0.585191 z m 12.990446,-3.939092 c -0.0621,1.29578 -0.402468,3.960589 -1.203424,4.427149 -1.68113,0.98129 -4.669586,-1.98129 -5.935509,-2.433121 0.137739,-0.396497 0.365047,-0.710589 0.382563,-1.217356 0.748806,0.184315 1.66043,0.05812 2.309316,-0.260749 -0.750398,-0.084 -1.582405,-0.07842 -2.078822,-0.435907 -0.181927,-0.525876 0.04459,-1.242437 -0.07643,-1.972532 1.781051,-0.502389 3.815287,-0.769905 6.066879,-0.835988 0.437898,0.569268 0.587181,1.653663 0.53543,2.728504 z M 25.033758,48.53543 C 24.67297,48.792595 22.232365,51.968153 21.89801,51.836385 17.481728,50.094745 13.352309,47.083201 9.6622213,44.234873 13.180494,36.68547 14.600717,27.436266 14.851672,18.521576 c 4.030334,-1.885031 7.570382,-4.602468 13.039451,-4.886226 -0.632883,4.477707 -1.21059,8.472612 -1.569825,12.688296 -1.374164,0.57926 -3.345661,-0.02627 -4.631648,0.179618 -0.01091,1.549722 1.964012,0.678623 2.128503,1.720781 0.123965,0.788256 -1.086624,0.847969 -0.692436,2.089211 1.005334,-0.365446 1.53328,-1.172651 2.605453,-1.475756 0.979698,2.143312 -0.01369,5.935589 0.127508,7.72699 0.02675,0.336346 0.167954,1.863416 0.921378,1.595462 0.666799,-0.237142 -0.0381,-4.061266 0.03499,-5.756728 0.06656,-1.562062 -0.188655,-3.073526 0.443949,-4.05414 5.284793,0.719347 10.655095,1.184316 16.373169,1.341203 -1.257962,0.539769 -2.752389,1.050597 -4.390844,1.974124 -0.888217,0.500716 -3.688058,1.542595 -3.944348,2.386226 -0.408957,1.344307 1.07297,2.06039 1.326434,3.212858 -2.667636,-1.454896 -3.188098,1.394546 -3.819148,3.413257 -0.571776,1.828423 -0.897254,3.194267 -1.03754,4.248805 -2.29801,1.095542 -4.754976,2.205016 -6.732962,3.609873 z m 26.743312,2.916799 c 3.679538,1.784236 4.342755,-6.668391 2.900478,-9.391321 0.22293,-0.812102 0.989649,-1.12301 1.302547,-1.853106 -2.053343,-3.678304 -4.333996,-7.111823 -6.42914,-10.746855 1.558519,0.970184 3.784634,0.173527 5.618631,0.899722 0.670382,0.265127 1.155653,1.799801 1.663216,3.027508 1.396099,3.377707 2.861864,7.636106 3.513934,10.859434 0.147293,0.734475 0.548566,2.334794 0.458598,2.988456 -0.160429,1.170382 -1.748407,2.038216 -2.55613,2.761943 -1.488057,1.336783 -2.425159,2.513137 -3.977309,3.763137 -0.629379,-0.929141 -1.980096,-1.553345 -2.494825,-2.308918 z m -35.1584,32.630573 c -1.753304,-1.92914 -1.386305,-5.543789 -1.174044,-8.115445 3.169148,1.99363 7.375517,-0.157644 7.335868,-3.548567 1.513057,0.04021 0.565246,1.889729 0.29156,3.08121 -0.894427,3.89172 1.506847,8.119825 0.108877,11.678742 -2.714331,-0.205812 -4.944267,-1.31449 -6.562261,-3.09594 z m 12.545263,11.196657 c -3.969228,-1.125 -9.05625,-4.009157 -10.687301,-7.574841 1.262978,0.183519 2.139729,0.820462 3.385629,0.899283 0.47086,0.03065 1.087739,-0.197452 1.628901,-0.0629 1.078424,0.267516 1.988575,2.68551 2.80215,3.585191 0.793073,0.878583 1.746298,1.253981 2.398647,2.054937 0.419108,0.202229 1.038773,0.188296 1.062579,0.817675 -0.181648,0.194267 -0.37293,0.342356 -0.590605,0.280653 z m 20.662102,-1.058121 c -4.119825,2.324442 -11.093193,4.07285 -15.475597,1.888137 -3.536147,-1.763137 -8.316043,-4.680335 -9.945701,-8.376991 1.522373,-3.567277 -0.450955,-6.835987 -0.576911,-10.457803 -0.06688,-1.927149 0.907365,-3.609474 0.982007,-5.707404 -0.52094,-0.859475 -2.11254,-0.965366 -3.214292,-0.906449 -0.37086,1.855892 -1.020103,3.941879 -2.93121,4.151274 -2.704219,0.29578 -4.681449,-1.942277 -4.804299,-4.281051 -0.145382,-2.750398 2.1125,-7.308917 5.312778,-6.992436 1.236266,0.122213 1.539969,1.361465 2.886943,1.348726 0.730056,-1.456609 -1.126154,-1.914013 -1.317118,-2.955812 -0.04976,-0.269109 0.153941,-1.32086 0.272413,-1.814093 0.58129,-2.401672 1.87711,-5.509952 3.152547,-7.338376 1.61879,-2.319267 4.799165,-2.668789 8.220701,-2.896098 0.611107,1.316481 2.862341,1.2082 4.32922,0.863853 -1.757962,0.696258 -3.392317,2.384156 -4.746776,3.878185 -1.555812,1.714172 -3.131807,3.552946 -3.211425,5.793392 2.940088,-4.078822 5.369069,-7.640924 10.715287,-9.435112 4.045303,-1.356688 8.769825,0.621815 11.878105,2.804538 1.289809,0.907246 2.059713,2.346736 2.976513,3.664411 3.430334,4.934316 5.031051,11.977309 4.67914,18.803742 -0.144905,2.815287 -0.138535,5.621019 -1.083201,7.515128 -0.987261,1.980493 -4.326433,3.752388 -6.281051,1.960987 -0.362261,1.925955 1.625398,3.117038 3.960191,2.423965 -1.664809,2.148487 -3.412022,4.730095 -5.778264,6.065287 z m 7.675557,-63.521975 c 3.219347,1.600438 9.234475,4.307763 11.252787,-0.0059 0.744825,-1.590047 1.618631,-4.277906 2.004379,-5.919267 0.544984,-2.315605 -0.590764,-7.182723 -2.97094,-7.959753 -2.102308,-0.686226 -4.555334,-0.644427 -7.087579,-0.135749 -0.298169,0.24801 -0.630175,0.680335 -0.862261,1.130972 -1.808121,0.07014 -3.501195,-0.09706 -4.929539,-0.840327 C 55.04379,15.632166 54.139331,15.417556 53.291401,15.142158 52.662818,12.649761 54.548965,9.3949045 54.097532,7.1222134 53.775478,5.5031051 51.783439,5.2527468 50.319268,4.9498408 50.271497,4.0500796 50.38336,3.2990088 50.48328,2.5378185 50.148487,1.3042078 48.646895,0.60195462 47.224124,0.42996815 42.542994,-0.13295541 35.43539,-0.38580454 30.932763,1.2333002 29.676314,4.315207 28.686505,8.0636545 27.639968,11.582842 c -4.391401,-0.468989 -7.943113,1.894825 -11.291401,3.443472 -1.159276,0.53742 -2.762978,0.833479 -3.196059,1.75625 -0.419865,0.893391 -0.248049,2.605613 -0.352229,4.223009 -0.265128,4.130972 -0.492158,8.115446 -1.583042,12.345144 -0.489809,1.898049 -1.3435507,3.57285 -1.9391319,5.401711 -0.5504777,1.695024 -1.5122612,3.789769 -1.7630971,5.480056 -0.3719348,2.505175 1.9870223,2.644506 3.495422,3.730096 2.331767,1.678742 4.162062,2.607086 6.68742,4.122213 0.74797,0.448646 3.003583,1.584395 3.260152,2.107484 0.510031,1.037022 -0.875478,2.499204 -1.2459,3.312102 -0.585948,1.28543 -0.891521,2.377389 -0.975478,3.645701 -2.118431,0.334793 -3.724323,1.595541 -4.694347,3.017117 -1.604618,2.352707 -2.717436,6.705415 -1.3291,10.016322 0.108877,0.260748 0.651871,0.773487 0.731966,1.173965 0.158002,0.788615 -0.297332,1.837182 -0.325637,2.675955 -0.14586,4.303344 0.728105,8.011147 3.62512,9.308918 1.176075,4.685111 5.38539,6.242834 9.351194,8.571258 1.482444,0.870223 3.1166,1.426353 4.804299,2.047372 6.05422,2.228103 15.343113,1.808519 20.367795,-1.99164 2.130573,-1.611465 5.536226,-5.013933 6.754379,-7.477309 3.217357,-6.503583 2.988854,-17.372611 0.738455,-25.283837 -0.302547,-1.062102 -0.741242,-2.623408 -1.353901,-3.899284 -0.42715,-0.890923 -1.754777,-2.673567 -1.593551,-3.460191 0.166003,-0.813296 3.02707,-2.985669 3.640526,-3.577229 1.104697,-1.065685 3.203423,-2.480096 3.373407,-3.824841 0.182723,-1.43113 -0.630573,-3.388933 -1.042595,-4.769904 -1.377389,-4.608639 -2.721338,-8.868671 -4.283042,-12.977389 z"
         fill="#231f20"
         id="path130" />
      <path
         d="m 36.023487,62.601513 c 0.174642,0.232484 1.134873,0.585589 2.478424,-0.06131 0,0 -1.592357,-0.265526 -1.459873,-2.920382 l -0.663535,0.132962 c 0,0 -0.685748,2.407245 -0.355016,2.848726"
         fill="#f7e4cd"
         id="path132" />
      <path
         d="m 48.387739,36.398885 c 0,-0.402906 -0.326831,-0.729618 -0.730096,-0.729618 -0.402866,0 -0.729697,0.326712 -0.729697,0.729618 0,0.402906 0.326831,0.730096 0.729697,0.730096 0.403265,0 0.730096,-0.32719 0.730096,-0.730096"
         fill="#1d1919"
         id="path136" />
      <path
         d="m 47.658041,39.782643 c 0,-0.402906 -0.326831,-0.729618 -0.730095,-0.729618 -0.402866,0 -0.729698,0.326712 -0.729698,0.729618 0,0.402867 0.326832,0.730096 0.729698,0.730096 0.403264,0 0.730095,-0.327229 0.730095,-0.730096"
         fill="#1d1919"
         id="path134" />
    </g>
  </g>
</svg>
