<?xml version="1.0" encoding="utf-8"?>
<!-- Generator: Adobe Illustrator 27.5.0, SVG Export Plug-In . SVG Version: 6.00 Build 0)  -->
<svg version="1.1" id="图层_1" xmlns="http://www.w3.org/2000/svg" xmlns:xlink="http://www.w3.org/1999/xlink" x="0px" y="0px"
	 viewBox="0 0 100 100" style="enable-background:new 0 0 100 100;" xml:space="preserve">
<style type="text/css">
	.st0{fill:#00B9FE;}
	.st1{fill:#FFFFFF;stroke:#000000;stroke-width:1.14;stroke-linecap:round;stroke-linejoin:round;}
	.st2{fill:#FF5E5B;}
	.st3{fill:url(#SVGID_1_);}
</style>
<g>
	<circle class="st0" cx="50" cy="50" r="50"/>
	<g id="Layer_1-2">
		<g id="Layer_1-3">
			<path class="st1" d="M75.38,54.82c-1.85,0.22-3.72,0.3-5.58,0.25V36.8h3.81c2.49-0.08,4.85,1.06,6.35,3.05
				c1.34,1.65,2.06,3.71,2.03,5.84C82.4,49.96,79.57,53.88,75.38,54.82z M91.12,42.13c-0.71-4.68-3.39-8.84-7.36-11.42
				c-3.27-2.3-7.17-3.54-11.17-3.55H16.75c-1.54,0.22-2.71,1.49-2.79,3.05v0.76c0,0-0.25,24.62,0.25,38.07
				c0.26,4.43,3.94,7.89,8.38,7.87c0,0,25.63,0,37.82-0.25h1.78c7.11-1.78,7.61-8.38,7.61-11.93
				C83.76,65.23,93.65,55.33,91.12,42.13z"/>
			<path class="st2" d="M41.37,66.24c0.76,0.25,1.02,0,1.02,0s8.88-8.12,12.94-12.94c3.55-4.31,3.81-11.17-2.28-13.96
				c-6.09-2.79-11.17,3.05-11.17,3.05c-3.45-4.24-9.67-4.92-13.96-1.52l-0.25,0.25c-3.05,3.3-2.03,8.88,0.25,11.93
				c4.06,4.48,8.38,8.72,12.94,12.69L41.37,66.24z"/>
			
				<linearGradient id="SVGID_1_" gradientUnits="userSpaceOnUse" x1="29.0217" y1="1827.4491" x2="39.5547" y2="1859.7841" gradientTransform="matrix(1 0 0 1 4.26 -1807.6801)">
				<stop  offset="0" style="stop-color:#FF4EA3"/>
				<stop  offset="1" style="stop-color:#FF5E5B"/>
			</linearGradient>
			<path class="st3" d="M41.88,66.5c0.28,0.03,0.56-0.06,0.76-0.25c0,0,8.88-8.12,12.94-12.94c3.55-4.31,3.81-11.17-2.28-13.96
				c-6.09-2.79-11.17,3.05-11.17,3.05c-3.45-4.24-9.67-4.92-13.96-1.52l-0.25,0.25c-3.05,3.3-2.03,8.88,0.25,11.93
				c4.14,4.57,8.55,8.89,13.2,12.94C41.37,66.5,41.62,66.5,41.88,66.5z"/>
		</g>
	</g>
</g>
</svg>
