<?xml version="1.0" encoding="UTF-8" standalone="no"?>
<!-- Generator: Adobe Illustrator 27.5.0, SVG Export Plug-In . SVG Version: 6.00 Build 0)  -->

<svg
   version="1.1"
   id="图层_1"
   x="0px"
   y="0px"
   viewBox="0 0 100 100"
   style="enable-background:new 0 0 100 100;"
   xml:space="preserve"
   sodipodi:docname="modrinth.svg"
   inkscape:version="1.3 (0e150ed6c4, 2023-07-21)"
   xmlns:inkscape="http://www.inkscape.org/namespaces/inkscape"
   xmlns:sodipodi="http://sodipodi.sourceforge.net/DTD/sodipodi-0.dtd"
   xmlns="http://www.w3.org/2000/svg"
   xmlns:svg="http://www.w3.org/2000/svg"><defs
   id="defs2" /><sodipodi:namedview
   id="namedview2"
   pagecolor="#ffffff"
   bordercolor="#000000"
   borderopacity="0.25"
   inkscape:showpageshadow="2"
   inkscape:pageopacity="0.0"
   inkscape:pagecheckerboard="0"
   inkscape:deskcolor="#d1d1d1"
   inkscape:zoom="5.865"
   inkscape:cx="41.005968"
   inkscape:cy="54.646206"
   inkscape:window-width="1397"
   inkscape:window-height="1237"
   inkscape:window-x="104"
   inkscape:window-y="104"
   inkscape:window-maximized="0"
   inkscape:current-layer="图层_1" />&#10;<style
   type="text/css"
   id="style1">&#10;	.st0{fill-rule:evenodd;clip-rule:evenodd;fill:#00AF5C;}&#10;	.st1{fill:#00AF5C;}&#10;</style>&#10;<g
   id="g2"
   transform="translate(-0.3)">&#10;	<path
   class="st0"
   d="m 98.3,62.9 c 2.2,-8.1 2.3,-17 0,-25.7 C 91.2,10.8 64,-4.9 37.6,2.2 17.2,7.7 3.2,25.1 1.1,44.9 h 8.4 c 2,-16.1 13.5,-30.1 30.1,-34.6 20.5,-5.5 41.7,5.6 49,25.1 l -8.2,2.2 C 76.7,28.5 69.2,21.9 60.2,19 l -1.5,8.5 c 7.1,2.6 12.8,8.5 14.9,16.3 3.1,11.4 -2.6,23 -13,27.9 L 62.8,80 C 76.4,74.4 84.5,60.3 82.6,45.8 l 8.1,-2.2 c 0.8,5.4 0.6,11 -0.8,16.3 z"
   id="path1" />&#10;	<path
   class="st1"
   d="M 63.3,97.8 C 36.9,104.9 9.7,89.2 2.6,62.8 1.8,59.8 1.3,56.7 1,53.6 h 8.4 c 0.2,2.3 0.6,4.6 1.2,6.9 0.6,2.4 1.5,4.7 2.5,6.9 l 7.5,-4.5 C 20,61.4 19.4,59.9 19,58.4 14.4,41.1 24.6,23.3 42,18.6 c 3.3,-0.9 6.6,-1.2 9.8,-1.1 L 50.3,26 c -2,0 -4.1,0.3 -6.1,0.8 -12.8,3.4 -20.4,16.6 -17,29.4 0.2,0.8 0.5,1.5 0.7,2.3 l 9.5,-5.7 -2.9,-7.6 9,-9.3 11.5,-2.4 3.3,4.1 -5.2,5.3 -4.6,1.4 -3.3,3.4 1.6,4.5 3.2,3.5 4.6,-1.2 3.3,-3.6 7.1,-2.3 2.1,4.8 -7.3,9 L 47.5,66.3 42,60 32.4,65.8 c 4.9,5.6 12.4,8.8 20.1,8.1 l 2.2,8.3 C 43.2,83.7 31.9,79 25,70.2 l -7.4,4.4 C 27.4,87.5 44.3,93.8 60.9,89.4 72.8,86.2 82.1,78.1 87.2,67.8 l 8.2,3 c -6,12.9 -17.4,23.1 -32.1,27 z"
   id="path2" />&#10;</g>&#10;</svg>
