<?xml version="1.0" standalone="no"?>
<!DOCTYPE svg PUBLIC "-//W3C//DTD SVG 20010904//EN"
 "http://www.w3.org/TR/2001/REC-SVG-20010904/DTD/svg10.dtd">
<svg version="1.0" xmlns="http://www.w3.org/2000/svg"
 width="700.000000pt" height="700.000000pt" viewBox="0 0 700.000000 700.000000"
 preserveAspectRatio="xMidYMid meet">
<metadata>
Created by potrace 1.14, written by Peter Selinger 2001-2017
</metadata>
<g transform="translate(0.000000,700.000000) scale(0.100000,-0.100000)"
fill="#000000" stroke="none">
<path d="M0 3500 l0 -3500 3500 0 3500 0 0 3500 0 3500 -3500 0 -3500 0 0
-3500z m2180 0 l0 -1960 -360 0 -360 0 0 1960 0 1960 360 0 360 0 0 -1960z
m2168 1936 c392 -80 726 -304 947 -636 106 -158 174 -320 217 -518 29 -132 32
-433 5 -565 -61 -301 -192 -544 -411 -763 -225 -224 -474 -355 -779 -411 -126
-23 -379 -23 -507 1 -595 109 -1055 557 -1186 1156 -27 121 -27 458 0 580 70
323 250 628 485 824 234 195 488 307 781 346 90 12 360 3 448 -14z"/>
</g>
</svg>
