<?xml version="1.0" encoding="utf-8"?>
<!-- Generator: Adobe Illustrator 27.5.0, SVG Export Plug-In . SVG Version: 6.00 Build 0)  -->
<svg version="1.1" id="图层_1" xmlns="http://www.w3.org/2000/svg" xmlns:xlink="http://www.w3.org/1999/xlink" x="0px" y="0px"
	 viewBox="0 0 100 100" style="enable-background:new 0 0 100 100;" xml:space="preserve">
<style type="text/css">
	.st0{fill:#231F20;}
</style>
<path class="st0" d="M0,0v100h100V0H0z M59.08,70.6c2.44,2.34,3.72,5.73,3.4,9.13v13.43c0,1.56,0.88,2.81,3.26,2.35
	C60.79,97.12,55.5,98,50,98c-5.36,0-10.53-0.84-15.37-2.37c2.18,0.2,3-1.17,3-2.37v-8.33c-13.91,2.97-16.88-6.58-16.88-6.58
	c-0.9-3.03-2.92-5.52-5.57-7.22c-4.51-3.03,0.37-2.97,0.37-2.97c3.18,0.42,6,2.28,7.64,5.04c2.97,5.1,9.39,6.9,14.6,4.03
	c0.27-2.49,1.38-4.83,3.18-6.58c-11.09-1.22-22.77-5.41-22.77-24.2c-0.11-4.94,1.7-9.66,5.04-13.22c-1.54-4.19-1.38-8.86,0.48-12.95
	c0,0,4.25-1.33,13.64,5.04c8.17-2.18,16.83-2.18,25,0c9.55-6.32,13.64-5.04,13.64-5.04c1.86,4.09,2.02,8.76,0.48,12.95
	c3.45,3.56,5.36,8.23,5.36,13.16C81.85,65.24,70.12,69.38,59.08,70.6z"/>
</svg>
