<?xml version="1.0" encoding="UTF-8" standalone="no"?>
<!-- Generator: Adobe Illustrator 27.5.0, SVG Export Plug-In . SVG Version: 6.00 Build 0)  -->

<svg
   version="1.1"
   id="_图层_1"
   x="0px"
   y="0px"
   viewBox="0 0 79.999998 80.027664"
   xml:space="preserve"
   sodipodi:docname="java.svg"
   width="80"
   height="80.027664"
   xmlns:inkscape="http://www.inkscape.org/namespaces/inkscape"
   xmlns:sodipodi="http://sodipodi.sourceforge.net/DTD/sodipodi-0.dtd"
   xmlns="http://www.w3.org/2000/svg"
   xmlns:svg="http://www.w3.org/2000/svg"><defs
   id="defs3" /><sodipodi:namedview
   id="namedview3"
   pagecolor="#ffffff"
   bordercolor="#000000"
   borderopacity="0.25"
   inkscape:showpageshadow="2"
   inkscape:pageopacity="0.0"
   inkscape:pagecheckerboard="0"
   inkscape:deskcolor="#d1d1d1" />&#10;<style
   type="text/css"
   id="style1">&#10;	.st0{fill:#196D80;}&#10;	.st1{fill:#E6892E;}&#10;	.st2{fill:none;}&#10;</style>&#10;<g
   id="g3"
   transform="translate(11.09997)">&#10;	<g
   id="g2">&#10;		<path
   class="st0"
   d="M 40,55.5 C 38,56.1 33.5,57 27.1,57 20.7,57 15.7,55.9 15.7,54.6 c 0,-0.9 1.1,-1.2 1.1,-1.2 l -0.2,-0.2 c -2.9,0.6 -5.8,1.3 -5.8,2.5 0,2.2 8.6,3.8 16.4,3.8 6.7,0 13.1,-1.2 15.8,-2.5 0,0 -3,-1.5 -3,-1.5 z m -21.2,6.9 c -1.3,0.3 -4.4,1.1 -4.4,2.5 0,2 6.5,3.6 12.7,3.6 8.6,0 12.2,-2.2 12.3,-2.4 l -3.6,-2 c -1.5,0.3 -4.2,0.9 -8.7,0.9 -5.2,0 -8.6,-0.9 -8.6,-2 0,-0.2 0.1,-0.4 0.3,-0.6 z M 54,48.6 c -0.3,4.6 -4.6,7.6 -8.7,10 l 0.4,0.3 c 4.6,-1.3 12.7,-5.1 12,-10.8 -0.3,-2.8 -2.9,-4.9 -6.4,-4.9 -1.1,0 -2,0.2 -2.8,0.4 v 0 L 48.4,44 c 3.1,-0.7 5.9,1.5 5.6,4.6 z M 27.1,75.7 c 12,-0.2 25.5,-2.5 25.5,-6.4 0,-0.7 -0.4,-1.2 -0.9,-1.5 L 51.4,68 c -1.2,3.1 -10.5,5.3 -24.4,5.5 -8.9,0.2 -21.3,-2 -21.3,-4.6 0,-2.6 6,-3.8 6,-3.8 L 11.3,64.8 C 7.3,65.4 0,67.2 0,70 c -0.1,3.9 16.7,5.9 27.1,5.7 z m -1.3,3 c -4.7,0 -10.7,-0.3 -15.6,-1.2 l -0.4,0.3 c 4.9,1.5 11.7,2.4 19.1,2.2 14.7,-0.2 26.7,-3.7 26.8,-8.2 L 55.5,71.6 C 54.7,73 48.3,78.4 25.8,78.7 Z M 7.4,47.5 c 0,-2.2 8.4,-3.4 12.3,-3.7 l 0.4,0.2 c -1.5,0.3 -7.6,1.3 -7.6,2.7 0,1.5 9.2,2.5 14.7,2.5 9.2,0 15.3,-1.3 17.1,-1.8 l 2.4,1.3 c -1.6,0.7 -8.4,2.8 -19.3,2.8 -12.3,0.1 -20,-2.3 -20,-4"
   id="path1" />&#10;		<path
   class="st1"
   d="m 43.8,16.6 -0.2,-0.2 c -3.7,1.2 -15,5.6 -15,14.1 0,4.7 4.6,7.3 4.6,11.7 0,1.6 -0.9,3.1 -1.6,4 l 0.3,0.2 c 2,-1.2 5.3,-4 5.3,-7.4 0,-2.9 -4,-6.5 -4,-10.2 0.1,-6.1 7.9,-10.8 10.6,-12.2 z m -5.5,-11 c 0,12.3 -16.9,17.1 -16.9,25.8 0,6 4,10 6.4,12.4 L 27.5,44 C 24.7,42.2 17.1,37.8 17.1,30.4 17.3,20 36.5,15 36.5,3.3 36.5,1.8 36.3,0.8 36.2,0.2 L 36.4,0 c 0.6,0.7 1.9,2.7 1.9,5.6"
   id="path2" />&#10;	</g>&#10;	<rect
   x="-11.1"
   y="0"
   class="st2"
   width="80"
   height="80"
   id="rect2" />&#10;</g>&#10;</svg>
