<?xml version="1.0" encoding="utf-8"?>
<!-- Generator: Adobe Illustrator 27.5.0, SVG Export Plug-In . SVG Version: 6.00 Build 0)  -->
<svg version="1.1" id="图层_1" xmlns="http://www.w3.org/2000/svg" xmlns:xlink="http://www.w3.org/1999/xlink" x="0px" y="0px"
	 viewBox="0 0 100 100" style="enable-background:new 0 0 100 100;" xml:space="preserve">
<style type="text/css">
	.st0{fill-rule:evenodd;clip-rule:evenodd;fill:#00AF5C;}
	.st1{fill:#00AF5C;}
</style>
<g>
	<path class="st0" d="M98.3,62.9c2.2-8.1,2.3-17,0-25.7C91.2,10.8,64-4.9,37.6,2.2C17.2,7.7,3.2,25.1,1.1,44.9h8.4
		c2-16.1,13.5-30.1,30.1-34.6c20.5-5.5,41.7,5.6,49,25.1l-8.2,2.2C76.7,28.5,69.2,21.9,60.2,19l-1.5,8.5c7.1,2.6,12.8,8.5,14.9,16.3
		c3.1,11.4-2.6,23-13,27.9l2.2,8.3c13.6-5.6,21.7-19.7,19.8-34.2l8.1-2.2c0.8,5.4,0.6,11-0.8,16.3L98.3,62.9L98.3,62.9z"/>
	<path class="st1" d="M63.3,97.8c-26.4,7.1-53.6-8.6-60.7-35c-0.8-3-1.3-6.1-1.6-9.2h8.4c0.2,2.3,0.6,4.6,1.2,6.9
		c0.6,2.4,1.5,4.7,2.5,6.9l7.5-4.5c-0.6-1.5-1.2-3-1.6-4.5c-4.6-17.3,5.6-35.1,23-39.8c3.3-0.9,6.6-1.2,9.8-1.1L50.3,26
		c-2,0-4.1,0.3-6.1,0.8c-12.8,3.4-20.4,16.6-17,29.4c0.2,0.8,0.5,1.5,0.7,2.3l9.5-5.7l-2.9-7.6l9-9.3L55,33.5l3.3,4.1l-5.2,5.3
		l-4.6,1.4l-3.3,3.4l1.6,4.5l3.2,3.5l4.6-1.2l3.3-3.6l7.1-2.3l2.1,4.8l-7.3,9l-12.3,3.9L42,60l-9.6,5.8c4.9,5.6,12.4,8.8,20.1,8.1
		l2.2,8.3C43.2,83.7,31.9,79,25,70.2l-7.4,4.4c9.8,12.9,26.7,19.2,43.3,14.8c11.9-3.2,21.2-11.3,26.3-21.6l8.2,3
		C89.4,83.7,78,93.9,63.3,97.8z"/>
</g>
</svg>
